<?xml version="1.0" standalone="no"?>
<svg
  width="600"
  height="600"
  viewBox="0 0 600 600"
  xmlns="http://www.w3.org/2000/svg"
>
  <g transform="translate(300,300)">
    <path d="M103.3,-118.7C134.7,-96.9,161.4,-65,186.1,-18.9C210.8,27.2,233.6,87.6,214.9,127.9C196.2,168.2,136.1,188.4,79.1,202.7C22.2,217.1,-31.5,225.5,-72.4,207.1C-113.4,188.7,-141.5,143.3,-172.3,96.4C-203.1,49.5,-236.5,0.9,-234.9,-47.2C-233.2,-95.3,-196.6,-143,-151.7,-162.4C-106.7,-181.8,-53.4,-172.9,-8.7,-162.6C36,-152.2,72,-140.5,103.3,-118.7Z" fill="#1abc9c" />
  </g>
</svg>
  